<?xml version="1.0" encoding="utf-8"?>
<!-- Generator: Adobe Illustrator 27.5.0, SVG Export Plug-In . SVG Version: 6.00 Build 0)  -->
<svg version="1.1" id="Capa_1" xmlns="http://www.w3.org/2000/svg" xmlns:xlink="http://www.w3.org/1999/xlink" x="0px" y="0px"
	 viewBox="0 0 2039 2208" style="enable-background:new 0 0 2039 2208;" xml:space="preserve">
<g>
	<path style="fill:#F3E6DA;" d="M1715.195,883.599h-205.382c55.534-7.876,98.61-55.899,98.61-113.518v-20.43
		c0-63.063-51.59-114.66-114.649-114.674h111.951c8.268,0,15.033-6.765,15.033-15.033c0-8.268-6.765-15.033-15.033-15.033h-11.178
		V434.923h11.178c8.268,0,15.033-6.765,15.033-15.033v0c0-8.268-6.765-15.033-15.033-15.033h-85.959
		c6.307,0,12.041-2.581,16.198-6.737c0.181-0.181,0.314-0.405,0.488-0.591c1.377-1.471,2.517-3.137,3.473-4.927
		c0.797-1.493,1.436-3.066,1.889-4.731c0.52-1.91,0.887-3.88,0.887-5.948V242.771c0-12.614-10.321-22.935-22.935-22.935H344.498
		c-12.614,0-22.935,10.321-22.935,22.935v139.151c0,12.614,10.321,22.935,22.935,22.935h248.237
		c-8.268,0-15.033,6.764-15.033,15.033v0c0,8.268,6.765,15.033,15.033,15.033h4.24v169.988h-4.24
		c-8.268,0-15.033,6.765-15.033,15.033c0,8.266,6.761,15.029,15.027,15.032H406.22v31.222h28.862v187.334H406.22v31.222h113.85
		c-7.694,2.671-13.292,9.929-13.292,18.502v124.889l0,0v56.662c0,3.834,1.154,7.394,3.072,10.426
		c2.371,3.75,5.966,6.601,10.22,8.077H323.108c-10.812,0-19.658,8.847-19.658,19.659v181.552c0,10.812,8.846,19.659,19.658,19.659
		h205.385c-55.535,7.875-98.612,55.899-98.612,113.518v20.43c0,63.067,51.597,114.667,114.662,114.674H432.579
		c-8.268,0-15.033,6.765-15.033,15.033s6.764,15.033,15.033,15.033h11.178v169.987h-11.178c-8.268,0-15.033,6.765-15.033,15.033
		c0,8.268,6.764,15.033,15.033,15.033h69.575c-12.614,0-22.935,10.321-22.935,22.935v139.151c0,1.577,0.161,3.117,0.468,4.607
		c0.447,2.168,1.293,4.171,2.308,6.072c0.483,0.906,1.025,1.776,1.618,2.606c0.881,1.233,1.913,2.341,3.01,3.378
		c4.078,3.853,9.504,6.272,15.531,6.272h1175.269c12.614,0,22.935-10.321,22.935-22.935v-139.151
		c0-12.614-10.321-22.935-22.935-22.935h-231.855c8.268,0,15.033-6.765,15.033-15.033c0-8.268-6.765-15.033-15.033-15.033h-4.24
		v-169.987h4.24c8.268,0,15.033-6.765,15.033-15.033c0-8.267-6.762-15.031-15.03-15.033h196.967v-31.222h-39.317v-187.334h39.317
		v-31.222h-124.189c2.083-0.743,4.003-1.821,5.699-3.184c0.002-0.002,0.004-0.004,0.006-0.006c0.763-0.614,1.473-1.285,2.138-2.004
		c0.142-0.152,0.286-0.301,0.423-0.458c0.666-0.766,1.294-1.564,1.839-2.425c1.918-3.033,3.072-6.593,3.072-10.427v-56.662h0
		V1122.97c0-8.573-5.597-15.832-13.292-18.503h196.962c10.813,0,19.659-8.846,19.659-19.658V903.257
		C1734.854,892.445,1726.008,883.599,1715.195,883.599z"/>
	<path style="fill:#56346B;" d="M1677.423,1802.921H502.154c-12.614,0-22.935,10.321-22.935,22.935v139.151
		c0,1.576,0.161,3.117,0.468,4.607c0.447,2.168,1.293,4.171,2.308,6.072c3.867,7.243,11.416,12.255,20.159,12.255h113.518v0.001
		h39.317v-0.001h37.004v0.001h985.429c12.614,0,22.935-10.321,22.935-22.935v-139.151
		C1700.358,1813.242,1690.037,1802.921,1677.423,1802.921z"/>
	<path style="fill:#492C5E;" d="M502.154,1987.942h113.518v-87.884H479.22v64.949c0,1.576,0.161,3.117,0.468,4.607
		c0.447,2.168,1.293,4.171,2.308,6.072C485.862,1982.929,493.412,1987.942,502.154,1987.942z"/>
	<rect x="654.99" y="1900.058" style="fill:#492C5E;" width="37.004" height="87.884"/>
	<path style="fill:#492C5E;" d="M1677.422,1987.942c12.615,0,22.935-10.32,22.935-22.934v-64.949h-259.029v46.254H844.636v-46.254
		H731.311v87.884H1677.422z"/>
	<rect x="615.673" y="1802.921" style="fill:#EFBB84;" width="39.317" height="185.021"/>
	<rect x="691.994" y="1802.921" style="fill:#EFBB84;" width="39.317" height="185.021"/>
	<rect x="844.636" y="1842.238" style="fill:#EFBB84;" width="596.693" height="104.074"/>
	<path style="fill:#BCADA2;" d="M1603.222,1354.246H589.228c-3.421,0-6.792,0.161-10.136,0.404
		c-1.015,0.073-2.018,0.182-3.025,0.277c-2.389,0.225-4.753,0.508-7.093,0.852c-1.042,0.154-2.085,0.303-3.116,0.479
		c-2.669,0.456-5.299,0.99-7.892,1.596c-0.543,0.127-1.102,0.223-1.641,0.356c-3.054,0.755-6.041,1.628-8.975,2.582
		c-0.708,0.23-1.393,0.492-2.093,0.734c-0.006-0.004-0.013-0.007-0.019-0.011c-0.22,0.076-0.428,0.168-0.648,0.245
		c-2.038,0.714-4.048,1.469-6.019,2.276c-1.034,0.423-2.06,0.852-3.075,1.301c-1.95,0.861-3.852,1.778-5.727,2.727
		c-0.828,0.42-1.678,0.812-2.492,1.247c-2.501,1.342-4.926,2.765-7.274,4.26c-0.873,0.556-1.696,1.153-2.546,1.729
		c-1.536,1.039-3.046,2.1-4.506,3.203c-0.966,0.73-1.906,1.473-2.837,2.229c-1.311,1.064-2.574,2.164-3.814,3.279
		c-0.858,0.771-1.733,1.526-2.555,2.321c-1.837,1.775-3.598,3.598-5.253,5.483c-0.705,0.803-1.33,1.645-2,2.467
		c-1.025,1.256-2.033,2.52-2.976,3.819c-0.721,0.995-1.399,2.006-2.071,3.025c-0.803,1.217-1.561,2.453-2.29,3.703
		c-0.603,1.034-1.215,2.061-1.767,3.116c-0.112,0.214-0.197,0.437-0.307,0.651c-5.017,9.818-7.862,20.482-7.862,31.656v15.323
		c0,41.151,37.479,75.763,87.059,84.078c22.641-20.747,36.674-49.52,36.674-81.333c0-17.819-4.402-34.686-12.252-49.724h1012.521
		V1354.246z"/>
	<path style="fill:#736153;" d="M602.952,1458.32c0-17.819-4.402-34.686-12.252-49.724c-10.103-19.355-25.938-35.654-45.444-47.07
		c-0.006-0.004-0.013-0.007-0.019-0.011c-0.22,0.076-0.428,0.168-0.648,0.245c-2.038,0.714-4.048,1.469-6.019,2.276
		c-1.034,0.423-2.06,0.852-3.075,1.301c-1.95,0.861-3.852,1.778-5.727,2.727c-0.828,0.42-1.678,0.812-2.492,1.247
		c-2.501,1.342-4.926,2.765-7.274,4.26c-0.873,0.556-1.696,1.153-2.546,1.729c-1.536,1.039-3.046,2.1-4.506,3.203
		c-0.966,0.73-1.906,1.473-2.837,2.229c-1.311,1.064-2.574,2.164-3.814,3.279c-0.858,0.771-1.733,1.526-2.555,2.321
		c-1.837,1.775-3.598,3.598-5.253,5.483c-0.705,0.803-1.33,1.645-2,2.467c-1.025,1.256-2.033,2.52-2.976,3.819
		c-0.721,0.995-1.399,2.006-2.071,3.025c-0.803,1.217-1.561,2.453-2.29,3.703c-0.603,1.034-1.215,2.061-1.767,3.116
		c-0.112,0.214-0.197,0.437-0.307,0.651c-5.017,9.818-7.862,20.482-7.862,31.656v15.323c0,41.151,37.479,75.763,87.059,84.078
		C588.919,1518.906,602.952,1490.133,602.952,1458.32z"/>
	<rect x="654.99" y="1389.612" style="fill:#8E7E70;" width="825.656" height="3.277"/>
	<path style="fill:#F39138;" d="M1531.526,1247.859V1122.97c0-8.573-5.597-15.832-13.292-18.503c0,0-0.002,0-0.003,0
		c-2.008-0.697-4.126-1.155-6.363-1.155H323.108c-10.812,0-19.658,8.847-19.658,19.659v181.552c0,10.812,8.846,19.659,19.658,19.659
		h1188.76c0.01,0,0.02-0.003,0.03-0.003c4.601-0.007,8.807-1.649,12.15-4.337c0.002-0.002,0.004-0.004,0.006-0.006
		c0.763-0.614,1.473-1.285,2.138-2.004c0.142-0.152,0.286-0.301,0.423-0.458c0.666-0.766,1.294-1.564,1.839-2.425
		c1.918-3.033,3.072-6.593,3.072-10.427L1531.526,1247.859L1531.526,1247.859z"/>
	<path style="fill:#E17A27;" d="M1385.673,1247.859v-144.548h-39.317v144.548H694.306v-144.548H654.99v144.548h-39.317v-144.548
		h-39.318v144.548h-41.629v-134.14h-117.18v134.14H303.45v56.662c0,10.813,8.846,19.658,19.658,19.658h1188.759
		c6.979,0,13.096-3.711,16.586-9.232c1.918-3.033,3.072-6.593,3.072-10.427v-56.662H1385.673z"/>
	<rect x="417.546" y="1113.719" style="fill:#FAB732;" width="117.18" height="185.021"/>
	<rect x="576.355" y="1103.311" style="fill:#FAB732;" width="39.317" height="219.713"/>
	<rect x="654.99" y="1103.311" style="fill:#FAB732;" width="39.317" height="219.713"/>
	<rect x="1346.356" y="1103.311" style="fill:#FAB732;" width="39.317" height="219.713"/>
	<path style="fill:#E62C23;" d="M1715.195,883.599h-205.382c-5.255,0.745-10.613,1.156-16.064,1.156H520.069
		c-7.694,2.671-13.292,9.929-13.292,18.502v124.889l0,0v56.662c0,3.834,1.154,7.394,3.072,10.426
		c2.371,3.75,5.967,6.601,10.223,8.077h991.795c2.237,0,4.355,0.458,6.363,1.155c0.001,0,0.003,0,0.003,0h196.962
		c10.813,0,19.659-8.846,19.659-19.658V903.257C1734.854,892.445,1726.008,883.599,1715.195,883.599z"/>
	<path style="fill:#CD1C1C;" d="M1509.882,1028.146V883.599h-0.068c-5.255,0.745-10.613,1.156-16.064,1.156h-47.024v143.391H506.778
		v56.662c0,3.834,1.154,7.394,3.072,10.426c2.371,3.75,5.967,6.601,10.223,8.077h991.795c2.237,0,4.355,0.458,6.363,1.155h196.964
		c10.812,0,19.658-8.846,19.658-19.659v-56.662H1509.882z"/>
	<path style="fill:#FFEECF;" d="M1446.725,884.755v218.556h63.157V883.599h-0.068c-5.255,0.745-10.613,1.156-16.064,1.156H1446.725z
		"/>
	<rect x="670.406" y="935.636" style="fill:#FFEECF;" width="590.91" height="85.571"/>
	<path style="fill:#CEBFB2;" d="M1555.907,732.113c-0.271-0.874-0.558-1.744-0.862-2.607c-0.449-1.273-0.874-2.549-1.395-3.798
		c-0.544-1.302-1.187-2.567-1.807-3.841c-0.807-1.659-1.649-3.298-2.582-4.906c-0.997-1.72-2.013-3.432-3.149-5.089
		c-0.741-1.083-1.578-2.114-2.376-3.169c-0.884-1.168-1.756-2.342-2.708-3.475c-0.877-1.044-1.815-2.047-2.747-3.059
		c-1.001-1.086-2.013-2.164-3.076-3.211c-0.979-0.965-1.987-1.906-3.017-2.837c-1.147-1.036-2.328-2.047-3.535-3.04
		c-1.047-0.861-2.093-1.718-3.185-2.544c-1.356-1.028-2.768-2.006-4.189-2.979c-1.039-0.711-2.052-1.442-3.125-2.123
		c-1.905-1.208-3.885-2.341-5.891-3.449c-0.673-0.372-1.305-0.784-1.989-1.143c-2.68-1.412-5.453-2.721-8.292-3.949
		c-0.995-0.43-2.032-0.802-3.045-1.208c-1.951-0.783-3.914-1.549-5.931-2.242c-1.192-0.41-2.408-0.774-3.621-1.152
		c-1.922-0.597-3.862-1.164-5.834-1.678c-1.27-0.331-2.547-0.64-3.837-0.935c-2.019-0.462-4.066-0.869-6.13-1.24
		c-0.526-0.095-1.032-0.227-1.56-0.316c-0.015,0.013-0.03,0.025-0.045,0.039c-0.737-0.124-1.464-0.268-2.207-0.38
		c-2.273-0.342-4.58-0.599-6.9-0.829c-1.108-0.11-2.202-0.257-3.32-0.341c-3.453-0.258-6.942-0.417-10.478-0.417H435.082v65.916
		h1001.683c-0.929,5.656-1.413,11.448-1.413,17.345c0,40.76,23.043,76.521,57.714,96.806c38.756-13.34,66.018-43.652,66.018-78.737
		v-15.323C1559.084,745.28,1557.909,738.575,1555.907,732.113z"/>
	<path style="fill:#736153;" d="M1436.765,732.113c-0.929,5.656-1.413,11.448-1.413,17.345c0,40.76,23.043,76.521,57.714,96.806
		c38.756-13.34,66.018-43.652,66.018-78.737v-15.323c0-6.924-1.176-13.629-3.177-20.091c-0.271-0.874-0.558-1.744-0.862-2.607
		c-0.449-1.273-0.874-2.549-1.395-3.798c-0.544-1.302-1.187-2.567-1.807-3.841c-0.807-1.659-1.649-3.298-2.582-4.906
		c-0.997-1.72-2.013-3.432-3.149-5.089c-0.741-1.083-1.578-2.114-2.376-3.169c-0.884-1.168-1.756-2.342-2.708-3.475
		c-0.877-1.044-1.815-2.047-2.747-3.059c-1.001-1.086-2.013-2.164-3.076-3.211c-0.979-0.965-1.987-1.906-3.017-2.837
		c-1.147-1.036-2.328-2.047-3.535-3.04c-1.047-0.861-2.093-1.718-3.185-2.544c-1.356-1.028-2.768-2.006-4.189-2.979
		c-1.039-0.711-2.052-1.442-3.125-2.123c-1.905-1.208-3.885-2.341-5.891-3.449c-0.673-0.372-1.305-0.784-1.989-1.143
		c-2.68-1.412-5.453-2.721-8.292-3.949c-0.995-0.43-2.032-0.802-3.045-1.208c-1.951-0.783-3.914-1.549-5.931-2.242
		c-1.192-0.41-2.408-0.774-3.621-1.152c-1.922-0.597-3.862-1.164-5.834-1.678c-1.27-0.331-2.547-0.64-3.837-0.935
		c-2.019-0.462-4.066-0.869-6.13-1.24c-0.526-0.095-1.032-0.227-1.56-0.316c-0.015,0.013-0.03,0.025-0.045,0.039
		C1453.56,685.061,1440.845,707.273,1436.765,732.113z"/>
	<rect x="553.033" y="714.285" style="fill:#8E7E70;" width="825.656" height="3.276"/>
	<rect x="520.654" y="690.001" style="fill:#8E7E70;" width="825.656" height="3.276"/>
	<path style="fill:#EB5771;" d="M1519.766,219.836H344.498c-12.614,0-22.935,10.321-22.935,22.935v139.151
		c0,12.615,10.321,22.935,22.935,22.935h1175.268c6.307,0,12.041-2.581,16.198-6.737c0.181-0.181,0.314-0.405,0.488-0.591
		c1.377-1.471,2.517-3.137,3.473-4.927c0.797-1.493,1.436-3.066,1.889-4.731c0.52-1.91,0.887-3.88,0.887-5.949V242.771
		C1542.701,230.157,1532.38,219.836,1519.766,219.836z"/>
	<path style="fill:#D13F5E;" d="M1177.285,316.973v-57.82H580.592v57.82H321.563v64.949c0,12.615,10.321,22.935,22.935,22.935
		h1175.268c6.307,0,12.041-2.581,16.198-6.737c0.181-0.181,0.314-0.405,0.488-0.591c1.377-1.471,2.517-3.137,3.473-4.927
		c0.797-1.493,1.436-3.066,1.889-4.731c0.52-1.91,0.887-3.88,0.887-5.949v-64.949H1177.285z"/>
	<rect x="443.757" y="1602.868" style="fill:#BCB2AC;" width="997.571" height="43.556"/>
	<path style="fill:#E34637;" d="M432.579,1772.855c-8.268,0-15.033,6.765-15.033,15.033c0,8.268,6.764,15.033,15.033,15.033
		h1012.989c8.268,0,15.033-6.765,15.033-15.033c0-8.268-6.765-15.033-15.033-15.033H432.579z"/>
	<path style="fill:#E34637;" d="M544.543,1572.802H432.579c-8.268,0-15.033,6.765-15.033,15.033s6.764,15.033,15.033,15.033
		h1012.989c8.268,0,15.033-6.765,15.033-15.033c0-8.267-6.762-15.031-15.03-15.033H544.555
		C544.551,1572.802,544.547,1572.802,544.543,1572.802z"/>
	<path style="fill:#2B446B;" d="M528.493,1324.18c-55.535,7.875-98.612,55.899-98.612,113.518v20.43
		c0,63.067,51.597,114.667,114.662,114.674c0.004,0,0.008,0,0.013,0h1097.984v-31.222H589.228c-7.869,0-15.537-0.684-22.949-1.927
		c-49.58-8.315-87.059-42.927-87.059-84.078v-15.323c0-11.174,2.844-21.838,7.862-31.656h-0.062
		c0.113-0.221,0.253-0.431,0.369-0.651c0.552-1.055,1.163-2.082,1.767-3.116c0.729-1.25,1.487-2.485,2.29-3.703
		c0.672-1.019,1.349-2.03,2.071-3.025c0.942-1.299,1.951-2.562,2.976-3.819c0.67-0.822,1.296-1.664,2-2.467
		c1.654-1.885,3.417-3.708,5.253-5.483c0.822-0.795,1.697-1.55,2.555-2.321c1.241-1.117,2.503-2.214,3.814-3.279
		c0.931-0.756,1.871-1.499,2.837-2.229c1.46-1.104,2.97-2.163,4.506-3.203c0.85-0.576,1.673-1.174,2.546-1.729
		c2.348-1.495,4.773-2.917,7.274-4.26c0.814-0.436,1.664-0.828,2.492-1.247c1.875-0.95,3.777-1.866,5.727-2.727
		c1.015-0.448,2.041-0.878,3.075-1.301c1.972-0.807,3.98-1.561,6.019-2.276c0.22-0.077,0.428-0.169,0.648-0.245
		c0.704-0.243,1.4-0.491,2.112-0.722c2.935-0.954,5.921-1.827,8.975-2.582c0.539-0.133,1.098-0.228,1.641-0.356
		c2.594-0.606,5.223-1.14,7.892-1.596c1.032-0.177,2.073-0.326,3.116-0.479c2.34-0.345,4.704-0.627,7.093-0.852
		c1.008-0.095,2.009-0.204,3.025-0.277c3.344-0.242,6.715-0.404,10.136-0.404h1053.311v-31.222h-124.305
		c-2.008,0.697-4.127,1.156-6.366,1.156H528.493z"/>
	<rect x="761.377" y="1419.677" style="fill:#8E7E70;" width="825.656" height="3.276"/>
	<rect x="659.615" y="1490.217" style="fill:#8E7E70;" width="825.656" height="3.276"/>
	<rect x="691.994" y="1514.5" style="fill:#8E7E70;" width="825.656" height="3.277"/>
	<path style="fill:#E34637;" d="M1605.725,434.923c8.268,0,15.033-6.765,15.033-15.033v0c0-8.268-6.765-15.033-15.033-15.033
		H592.735c-8.268,0-15.033,6.764-15.033,15.033v0c0,8.268,6.765,15.033,15.033,15.033H1605.725z"/>
	<path style="fill:#E34637;" d="M1493.774,634.977h111.951c8.268,0,15.033-6.765,15.033-15.033c0-8.268-6.765-15.033-15.033-15.033
		H592.735c-8.268,0-15.033,6.765-15.033,15.033c0,8.266,6.761,15.029,15.027,15.032h901.019
		C1493.757,634.976,1493.765,634.977,1493.774,634.977z"/>
	<path style="fill:#196043;" d="M1493.749,884.755c5.452,0,10.81-0.411,16.064-1.156c55.534-7.876,98.61-55.899,98.61-113.518
		v-20.43c0-63.063-51.59-114.66-114.649-114.674c-0.008,0-0.017-0.001-0.025-0.001H406.22v31.222h28.862v-0.001h1013.994
		c3.536,0,7.025,0.159,10.478,0.417c1.118,0.084,2.211,0.231,3.32,0.341c2.32,0.23,4.627,0.487,6.9,0.829
		c0.751,0.113,1.505,0.215,2.251,0.341c0.528,0.089,1.034,0.221,1.56,0.316c2.066,0.372,4.11,0.778,6.13,1.24
		c1.29,0.295,2.568,0.604,3.837,0.935c1.973,0.513,3.912,1.08,5.834,1.678c1.213,0.378,2.429,0.742,3.621,1.152
		c2.017,0.693,3.979,1.458,5.931,2.242c1.013,0.407,2.05,0.778,3.045,1.208c2.838,1.228,5.612,2.536,8.292,3.949
		c0.684,0.36,1.316,0.771,1.989,1.143c2.005,1.109,3.987,2.24,5.891,3.449c1.073,0.681,2.086,1.412,3.125,2.123
		c1.421,0.973,2.833,1.951,4.189,2.979c1.091,0.826,2.137,1.683,3.185,2.544c1.208,0.993,2.388,2.003,3.535,3.04
		c1.03,0.931,2.037,1.872,3.017,2.837c1.063,1.048,2.075,2.124,3.076,3.211c0.932,1.012,1.87,2.015,2.747,3.059
		c0.951,1.133,1.824,2.306,2.708,3.475c0.798,1.055,1.635,2.086,2.376,3.169c1.135,1.658,2.152,3.369,3.149,5.089
		c0.932,1.608,1.774,3.248,2.582,4.906c0.62,1.274,1.263,2.539,1.807,3.841c0.521,1.249,0.946,2.525,1.395,3.798
		c0.308,0.872,0.684,1.723,0.958,2.607h-0.096c2.001,6.461,3.177,13.167,3.177,20.091v15.323c0,35.085-27.263,65.398-66.018,78.737
		c-13.497,4.646-28.362,7.269-43.991,7.269H406.22v31.222H1493.749z"/>
	<rect x="557.658" y="814.89" style="fill:#8E7E70;" width="825.656" height="3.276"/>
	<rect x="451.272" y="784.824" style="fill:#8E7E70;" width="825.656" height="3.276"/>
	<rect x="580.592" y="259.153" style="fill:#EFBB84;" width="596.692" height="104.074"/>
</g>
</svg>
